<?xml version="1.0" encoding="UTF-8" standalone="no"?>
<svg
   xmlns:dc="http://purl.org/dc/elements/1.1/"
   xmlns:cc="http://creativecommons.org/ns#"
   xmlns:rdf="http://www.w3.org/1999/02/22-rdf-syntax-ns#"
   xmlns:svg="http://www.w3.org/2000/svg"
   xmlns="http://www.w3.org/2000/svg"
   xmlns:xlink="http://www.w3.org/1999/xlink"
   xmlns:sodipodi="http://sodipodi.sourceforge.net/DTD/sodipodi-0.dtd"
   xmlns:inkscape="http://www.inkscape.org/namespaces/inkscape"
   id="svg2342"
   viewBox="0 0 153.09 149.65"
   version="1.0"
   sodipodi:docname="ag6h0x.svg"
   inkscape:version="0.92.4 5da689c313, 2019-01-14">
  <sodipodi:namedview
     pagecolor="#ffffff"
     bordercolor="#666666"
     borderopacity="1"
     objecttolerance="10"
     gridtolerance="10"
     guidetolerance="10"
     inkscape:pageopacity="0"
     inkscape:pageshadow="2"
     inkscape:window-width="1352"
     inkscape:window-height="760"
     id="namedview141"
     showgrid="false"
     inkscape:zoom="3.9091214"
     inkscape:cx="39.068547"
     inkscape:cy="74.824997"
     inkscape:window-x="4"
     inkscape:window-y="4"
     inkscape:window-maximized="0"
     inkscape:current-layer="svg2342" />
  <defs
     id="defs2344">
    <pattern
       id="pattern36384"
       xlink:href="#pattern23027"
       patternTransform="matrix(0.53351,0,0,0.53351,-65.815702,-11.455658)" />
    <pattern
       id="pattern36386"
       xlink:href="#pattern23027"
       patternTransform="matrix(0.53351,0,0,0.53351,-65.815702,-11.455658)" />
    <pattern
       id="pattern36388"
       xlink:href="#pattern23027"
       patternTransform="matrix(0.53351,0,0,0.53351,-65.815702,-11.455658)" />
    <pattern
       id="pattern36390"
       xlink:href="#pattern23027"
       patternTransform="matrix(0.53351,0,0,0.53351,-65.815702,-11.455658)" />
    <pattern
       id="pattern36392"
       xlink:href="#pattern23027"
       patternTransform="matrix(0.53351,0,0,0.53351,-65.815702,-11.455658)" />
    <pattern
       id="pattern23027"
       width="16.125"
       patternUnits="userSpaceOnUse"
       patternTransform="translate(787.06 270.16)"
       height="16.125">
      <path
         id="path23022"
         fill-rule="evenodd"
         fill="#fff"
         d="m0 0v1.9688l14.125 14.156h2v-2.063l-14.062-14.062h-2.063zm6.0938 0l10.031 10v-4l-5.969-6h-4.0622zm8.0942 0l1.937 1.9375v-1.9375h-1.937zm-14.188 6v4.062l6.0625 6.063h4.0625l-10.125-10.125zm0 8.094v2.031h2.0312l-2.0312-2.031z" />
    </pattern>
    <pattern
       id="pattern36394"
       xlink:href="#pattern23027"
       patternTransform="matrix(0.53351,0,0,0.53351,-65.815702,-11.455658)" />
  </defs>
  <path
     id="path3219"
     d="m 136.76401,74.828637 a 60.226611,60.226611 0 1 1 -120.442665,0 60.226611,60.226611 0 1 1 120.442665,0 z"
     inkscape:connector-curvature="0"
     style="stroke:#fcffff;stroke-width:2.10099339;fill:none;fill-opacity:1;stroke-opacity:1" />
  <path
     id="path3221"
     d="m 68.564797,63.64121 c 0.165388,-0.986994 -1.248413,-2.832939 -1.616535,-4.310761 -0.341446,-1.371121 -0.618872,-2.230072 -1.34978,-2.960981 -1.445812,-1.451147 -1.883291,-0.746914 -1.883291,1.07769 0,1.248414 -0.288095,2.491492 -0.538845,3.499826 -0.288095,1.141711 -1.355115,1.893961 -1.888625,2.427471 -1.024339,1.024339 -1.765918,1.019004 -2.960981,1.616535 -1.072355,0.53351 -2.42747,1.541844 -2.42747,-0.538845 0,-1.60053 0.832275,-1.909966 1.616535,-2.694226 0.81627,-0.81627 0.997664,-1.995327 1.616535,-3.23307 0.613537,-1.227073 1.077691,-1.84061 1.077691,-3.505161 0,-2.40613 -1.237744,-0.917637 -2.155381,0 -0.8056,0.8056 -1.205732,1.877955 -1.616535,2.694225 -0.528175,1.05635 -2.544843,0.442814 -3.233071,0.27209 -1.184392,-0.298765 -0.53351,-2.411465 -1.07769,-3.50516 -0.693563,-1.381791 -0.597531,-2.096695 0.266755,-2.960981 0.922972,-0.928307 1.835275,-1.029674 2.694226,-1.888625 1.408466,-1.408466 -0.181394,-1.616535 -1.616536,-1.616535 -1.467152,0 -2.640874,-0.27209 -4.03867,-0.27209 -1.205733,0 -1.077691,-2.022003 -1.077691,-3.233071 0,-0.645547 -2.374119,-1.637876 -3.23307,-2.15538 -1.157717,-0.693563 -0.800265,-1.915301 -0.538845,-2.960981 0.26142,-1.06702 2.128705,-1.616535 3.23307,-1.616535 1.904631,0 1.008334,-0.960318 -0.538845,-1.349781 -0.618871,-0.154717 0.133378,-1.88329 -2.15538,-1.88329 -0.384127,0 -2.075354,1.323105 -2.155381,1.344445 -1.115035,0.277426 -0.03735,-3.158379 0,-3.23307 0.75225,-1.509834 1.648546,-1.584525 0.266755,-2.966316 -0.82694,-0.82694 -1.595194,-1.840609 -2.15538,-2.96098 -0.53351,-1.072355 2.070019,-1.979322 2.427471,-2.155381 1.08836,-0.54418 1.755247,-1.147046 2.694225,-1.616535 1.355115,-0.677558 1.536509,-0.992329 2.960981,-1.34978 1.061684,-0.26142 1.931306,-0.8056 3.23307,-0.8056 1.696562,0 2.358114,0.213404 3.505161,1.07769 0.906967,0.677557 1.451147,1.397796 2.42747,1.88329 0.922973,0.464154 1.461818,1.733908 2.155381,2.427471 1.179057,1.179057 1.86195,2.66755 2.96098,3.771915 0.896297,0.890962 1.115036,1.920636 1.888626,2.694226 0.848281,0.853616 1.280424,1.888625 1.616535,3.23307 0.346781,1.397797 1.296429,2.37412 2.15538,3.233071 1.189728,1.189727 1.819269,1.755248 2.422136,2.966316 0.538845,1.072355 1.547179,0.938977 2.15538,2.15538 0.576191,1.147046 1.083025,1.451147 1.083025,3.233071 v 3.771915 c 0,1.259084 0.538845,2.128705 0.538845,3.505161 0,1.493828 0.608202,2.352779 -0.538845,3.499826 -0.53351,0.53351 -1.36045,2.17672 -1.888625,3.23307 -0.458819,0.922972 -1.429807,1.6112 -2.15538,2.155381 -0.576191,0.432143 -1.435142,0 -2.155381,0 z"
     inkscape:connector-curvature="0"
     style="fill:url(#pattern36394);fill-rule:evenodd;stroke-width:0.53351003" />
  <path
     id="path3223"
     d="m 128.65403,78.32874 c 1.25375,-2.214067 2.56085,-5.095021 2.8276,-7.863938 -0.52817,-2.480821 1.45648,-5.041669 3.60119,-2.635539 2.26742,1.125706 0.0587,-4.310761 0.14939,-5.703222 -0.78426,-2.854278 -1.08836,-5.767243 -2.45415,-8.418788 -0.74158,-2.470151 -1.82994,-5.057674 -3.46248,-7.106353 -0.67222,-2.619534 -1.69656,-4.956308 -3.89462,-6.668875 -3.16372,-2.358114 -3.59586,4.80159 -6.05001,1.813934 -1.74457,-2.998326 -4.41212,1.099031 -6.96764,-0.922972 -2.75291,0.250749 -3.88395,-5.804589 -0.77892,-5.319095 4.49749,-0.197399 7.42112,-2.304763 2.98766,-7.085013 -1.12038,-1.595195 -5.34044,-4.001325 -5.79392,-4.380117 -0.81627,-0.677558 -0.77893,1.136376 -1.98466,1.115036 -0.53885,-0.01067 -0.64555,-1.061685 -1.43514,-1.520503 -0.97633,-0.560186 -1.86729,-2.662215 -2.39013,-2.90763 -2.66755,-1.355115 -7.223723,-2.955645 -10.029985,-4.01733 -2.987656,-0.821606 -6.482147,-1.435142 -10.216717,-1.883291 -1.605865,1.467153 -3.441139,6.007323 -0.82694,8.658868 15.002301,1.63254 7.49048,23.330392 17.739207,27.641153 2.342105,1.445812 4.374785,3.414464 6.962305,4.422798 2.19273,1.419136 3.58519,-7.618523 4.34811,-9.629856 2.15004,-2.448811 1.34978,3.025002 1.13104,4.188054 -0.53885,2.480821 -1.07236,5.340435 -3.4038,6.802252 -1.4138,1.392461 -5.22839,0.02668 -5.59652,1.557849 1.26442,2.160716 2.65688,4.241405 3.87862,6.439466 1.31777,2.982321 5.17505,3.878618 6.25807,7.053002 1.96866,2.726236 12.40411,7.645199 15.40244,6.37011 z m -7.81592,-43.923878 c -0.1974,0.28276 -0.24008,1.365785 -0.40014,2.022002 -0.20273,0.79493 0.17606,1.301765 0.40014,1.749913 0.23474,0.469489 0.73624,0.677558 1.34978,0.677558 0.62954,0 0.95498,-0.27209 1.74991,-0.27209 -0.34678,-1.365786 -0.45882,-1.867285 -1.34445,-2.422136 l -1.2164,-1.216402 z m -2.02734,1.477822 c -0.37879,0.133378 -0.54418,0.0907 -1.0937,-0.04802 -0.66155,-0.165388 -0.76292,-0.474824 -0.66688,-0.858951 0.0907,-0.357451 0.76825,-0.28276 1.14171,-0.28276 1.18439,0 0.6989,0.842946 1.14171,0.666887 0.3201,-0.128042 -0.47483,0.181394 -0.52284,0.52284 z"
     inkscape:connector-curvature="0"
     style="fill:url(#pattern36392);fill-rule:evenodd;stroke-width:0.53351003" />
  <path
     id="path3225"
     d="m 47.976646,22.400887 c 4.577516,-3.98532 10.792908,-5.047005 16.581491,-5.809924 3.17972,-1.707232 6.316759,0.661552 7.885278,1.627205 1.392461,-2.891624 6.098019,1.232408 5.639201,-2.96098 2.598193,-0.816271 4.033335,4.044005 6.812922,1.445812 3.163715,3.035672 -5.06301,3.969314 -3.48382,6.178046 4.742904,-0.53351 7.149034,3.590522 10.984971,5.052339 -1.771253,-2.95031 -0.234744,-3.067682 -1.083025,-4.337436 -1.701897,-2.550178 -4.044006,-4.108027 0.970988,-2.90763 5.745903,3.206396 3.227735,-1.264418 10.190038,4.284086 2.07002,-0.293431 2.88096,1.637875 2.82227,2.806262 -0.0427,0.938978 -0.62954,1.749913 -2.82227,0.432143 -2.950307,2.10203 -3.041004,3.665214 -0.57085,1.147047 2.42213,0.02134 2.46481,4.764244 5.32976,2.096694 -0.0747,0.8056 -0.49083,1.824604 -1.04034,2.070019 -0.72558,0.325441 -1.68056,-0.25075 -2.39546,0.0053 -0.85895,0.304101 -1.04035,0.965653 -1.32311,2.683555 -1.97932,0.49083 -2.80626,1.552514 -2.742239,2.976986 0.101367,2.283423 1.648549,5.169712 -1.957981,5.703222 -4.166713,2.054014 4.11336,9.576505 0.128042,9.421787 -2.502162,-2.523503 -3.163714,-6.407455 -7.549166,-5.473813 -1.931307,-0.341446 -2.342109,2.934305 -5.05234,0.922972 -5.559174,-0.330776 -6.882279,6.732897 -4.55084,10.456796 1.515168,4.860277 7.677209,1.856615 8.488144,-1.403131 7.437129,-1.173722 -2.998326,9.219053 5.041669,7.693214 5.228398,-0.362786 0.570856,8.994979 7.229061,7.767906 3.93197,0.480159 8.09868,-7.831927 11.7639,-2.459481 2.07535,-0.52284 4.44413,-1.205733 6.30075,-0.416138 2.14471,0.912302 3.74524,3.44114 5.62319,4.620197 6.17805,-0.485495 1.35512,7.842597 7.37845,7.298416 6.32209,-0.656217 1.77659,6.242067 1.39779,9.549829 -1.6112,4.817596 -3.62786,9.544503 -6.34877,13.844583 -4.96164,2.33145 -7.069,8.10935 -11.04899,11.61984 -4.88695,1.42981 -8.13603,5.77259 -12.44679,8.15737 -2.4168,2.19806 -7.346429,5.98598 -9.656527,5.2124 2.230072,-4.06535 5.004324,-7.37845 7.693217,-11.24106 2.08069,-4.69489 9.28841,-10.95296 6.09268,-15.79723 -5.10035,-2.38479 -5.30309,-9.288406 -8.584175,-13.433778 2.155385,-2.107365 -0.325441,-6.017993 3.563845,-7.954634 1.8993,-1.616536 2.04868,-9.539159 -1.85661,-7.058338 -5.607193,-1.253748 -8.098685,-7.607852 -13.961959,-7.997315 -3.670549,-3.254411 -9.107016,-1.653881 -13.583165,-4.742904 -4.294756,-1.90463 -3.894623,-8.03466 -7.906618,-10.584838 -0.981659,-1.291094 -3.43047,-6.866274 -4.230735,-3.915963 0.293431,2.150045 6.10869,10.238057 1.525839,5.527163 -3.094358,-4.27875 -4.673548,-9.400446 -7.431794,-13.908605 -2.438141,-4.044006 2.310098,-7.367774 1.520503,-11.054328 2.66755,-0.485494 -2.4168,-4.5295 -1.787258,-7.165039 -1.947312,-2.731571 -2.299428,0.277425 -4.689553,-0.453483 -0.181394,2.027338 -1.781924,1.168386 -2.859614,0.474824 z"
     inkscape:connector-curvature="0"
     style="fill:#ffffff;fill-rule:evenodd;stroke-width:0.53351003" />
  <path
     id="path3227"
     d="m 28.279457,81.428433 c 0.54418,0.336111 1.157717,1.136376 1.344445,1.88329 0.144048,0.576191 0.698898,1.024339 1.083026,1.216403 0.400132,0.197399 0.698898,0.970988 0.938977,1.211068 0.51217,0.506834 1.488493,-0.810935 1.616536,-0.944313 0.528174,-0.52284 0.778924,-1.109701 0.138712,-1.749913 -0.416138,-0.410802 -0.869621,-0.464153 -1.216403,-0.810935 -0.53351,-0.53351 1.227073,-0.77359 1.349781,-0.8056 0.586861,-0.149383 0.853616,-0.426808 1.344445,-0.672223 0.629542,-0.314771 1.232408,-0.266755 1.755248,-0.138712 0.56552,0.144047 0.410802,1.093695 0.672222,1.616535 0.08003,0.160053 1.141712,0.608201 1.349781,0.810935 0.778924,0.78426 0.464153,-0.960318 0.400132,-1.211067 -0.106702,-0.442814 -0.453483,0.01067 0.677558,-0.272091 0.55485,-0.138712 1.002999,0.5015 1.344445,0.672223 0.378792,0.192064 0.458819,1.301764 0.538845,1.616535 0.149383,0.592196 0.938978,0.842946 1.34978,0.944313 0.442814,0.112037 0.938978,0.538845 1.477823,0.672223 0.586861,0.149382 1.136376,0.656217 1.755248,0.810935 0.725574,0.181393 1.173722,0.181393 1.88329,0.538845 0.618872,0.309436 0.778925,0.362787 1.483158,0.538845 0.688228,0.170723 0.938978,0.800265 1.211068,1.34978 0.320106,0.640212 -0.394798,1.333775 -0.538845,1.616536 -0.213404,0.432143 0.298765,1.579189 0.405467,2.016667 0.197399,0.78426 0.0053,1.200398 -0.133377,1.755248 -0.149383,0.597531 0.0053,1.499163 0.133377,2.022003 0.117372,0.469489 0.746914,0.741579 1.07769,1.07769 0.613537,0.613537 0.144048,1.205733 -0.405467,1.477823 -0.576191,0.288095 -0.992329,0.405468 -1.749913,0.405468 -0.624207,0 -1.243078,-0.378792 -1.88329,-0.538845 -0.549516,-0.138713 -1.179057,-0.133378 -1.888626,-0.133378 -0.714903,0 -1.179057,0.218739 -1.888625,-0.133377 -0.474824,-0.24008 -1.131041,-0.389463 -1.749913,-0.538846 -0.672222,-0.170723 -0.960318,0.149383 -1.344445,0.538846 -0.394797,0.389462 -0.389462,1.451147 -0.538845,1.749916 -0.28276,0.56018 -0.789595,0.45348 -0.944313,1.07769 -0.186728,0.73091 0.122707,1.31243 0.266755,1.88329 0.149383,0.59219 -0.08003,1.1097 -0.400132,1.75524 -0.384128,0.76826 -0.432143,0.85896 -1.083026,1.34445 -0.330776,0.25075 -1.403131,0.13871 -1.88329,0.13871 -0.442813,0 -1.104366,-0.61887 -1.483158,-0.81093 -0.496164,-0.24542 -0.688228,-1.22174 -1.211067,-1.48316 -0.485495,-0.24008 -0.997664,-0.6989 -1.483158,-0.94431 -0.645547,-0.32011 -0.960318,-0.69357 -1.344445,-1.21107 -0.416138,-0.55485 -0.650883,-0.84295 -0.810936,-1.48316 -0.144047,-0.576189 -0.538845,-1.344444 -0.810935,-1.883289 -0.357451,-0.714903 -0.512169,-1.109701 -0.672222,-1.749913 -0.149383,-0.608201 -0.266755,-0.976323 -0.266755,-1.755248 0,-0.677557 -0.27209,-1.093695 -0.27209,-1.88329 0,-0.720238 0.234744,-1.211068 0.405467,-1.888625 0.133378,-0.53351 0.517505,-0.714904 0.672223,-1.344446 0.149383,-0.592196 0.133377,-1.163051 0.133377,-1.888625 0,-0.04802 -0.928307,-1.31777 -1.07769,-1.616535 -0.25075,-0.506835 -0.133377,-1.285759 -0.133377,-1.888626 0,-0.549515 0.512169,-1.157716 0.672222,-1.477822 0.186729,-0.373457 -0.165388,-1.232408 -0.266755,-1.483158 z"
     inkscape:connector-curvature="0"
     style="fill:url(#pattern36390);fill-rule:evenodd;stroke-width:0.53351003" />
  <path
     id="path3229"
     d="m 56.710205,131.27961 c -0.714903,-2.1127 -0.528175,-4.54017 0.757584,-6.40212 0.432143,-1.23775 1.504498,-1.97399 2.475487,-2.75825 1.440477,-0.76292 3.169049,-0.57086 4.694888,-1.1097 1.589859,-0.41614 3.291756,-0.98166 4.886951,-0.25608 2.080689,1.23774 4.572181,0.0427 6.754237,0.91763 1.355115,0.36812 2.443476,1.89396 3.974649,1.24842 1.664551,-0.36279 3.227736,-1.25909 4.982984,-1.07236 1.467152,0.17072 3.110363,-0.38413 4.449473,0.35212 1.024339,0.89629 2.224737,1.54184 3.249076,2.42747 0.922972,1.09903 2.438141,2.022 2.544843,3.56918 -0.645547,1.26975 -0.848281,3.35044 -1.984657,4.29476 -10.558163,3.28108 -22.844899,3.79325 -35.643804,-0.45349 -0.394797,-0.23474 -0.752249,-0.52284 -1.141711,-0.75758 z"
     inkscape:connector-curvature="0"
     style="fill:url(#pattern36388);fill-rule:evenodd;stroke-width:0.53351003" />
  <path
     id="path3231"
     d="m 42.828275,45.992699 c -0.341447,0.656217 -0.314771,1.259083 -1.211068,1.483158 -0.864286,0.213404 -0.874956,0.266755 -0.538845,0.944312 0.352117,0.704233 -0.0907,0.51217 -0.672223,0.8056 -0.330776,0.165388 -0.720238,0.853616 -0.944312,1.077691 -0.378792,0.378792 -1.664551,-0.224075 -1.749913,-0.266755 -0.186729,-0.09603 -0.378792,-1.509834 -0.405468,-1.616536 -0.170723,-0.688228 -0.325441,-1.05635 -0.538845,-1.483158 -0.277425,-0.55485 -0.709568,-0.336111 -0.27209,-1.211067 0.24008,-0.480159 0.485494,-1.104366 0.677558,-1.483158 0.106702,-0.224074 -0.965653,-1.333775 -1.07769,-1.483158 -0.400133,-0.53351 -0.544181,-1.083025 -0.677558,-1.616535 -0.138713,-0.565521 1.04568,-0.698898 1.483158,-0.810935 0.528175,-0.128043 0.832275,-0.826941 1.07769,-1.077691 0.485494,-0.485494 1.515168,0.288096 2.022003,0.538846 0.528175,0.266755 0.0053,1.227073 0.27209,1.755247 0.298766,0.597532 0.400132,1.051015 0.400132,1.749913 0,0.496165 -0.682892,0.853616 -0.8056,1.349781 -0.256084,1.019004 0.597532,0.928307 1.077691,0.8056 0.613536,-0.154718 0.570855,-0.538845 1.483157,-0.538845 0.27209,0 0.384128,0.976323 0.400133,1.07769 z"
     inkscape:connector-curvature="0"
     style="fill:url(#pattern36386);fill-rule:evenodd;stroke-width:0.53351003" />
  <path
     id="path3233"
     d="m 50.265404,71.083674 c -0.154718,0 -0.714903,-1.701897 0.762919,-1.333775 0.496165,0.122707 -0.442813,0.933643 -0.762919,1.333775 z m -8.765569,0.570856 c 0.368122,-0.810935 0.330776,-1.712567 1.717902,-1.712567 0.554851,0 1.776588,1.013669 2.091359,1.333775 0.77359,0.768254 1.58986,0.746914 0,1.141711 -0.965653,0.24008 -0.981658,0.762919 -2.283422,0.762919 -0.720239,0 -1.019005,-1.019004 -1.525839,-1.525838 z m 5.05234,2.096694 c -0.128043,0 0.08003,-2.256747 0.28276,-2.66755 0.453483,-0.906967 0.869621,-1.440477 1.333775,-1.904631 0.672223,-0.672222 0.256085,-1.776588 0,-2.288758 -0.320106,-0.640212 1.525839,0.805601 1.525839,1.525839 0,0.490829 -0.570856,1.413802 -0.570856,2.475486 0,0.885627 -0.650882,1.605866 -1.147047,2.096695 -0.757584,0.757584 -0.170723,1.525838 -1.520503,1.525838 -0.394798,0 -1.291094,-0.762919 0.09603,-0.762919 z m 6.476811,-2.66755 c 1.200398,0.298766 0.288095,-0.0053 1.04568,-1.525839 0.496164,-0.992328 0.752249,-1.536508 0,-2.283422 -0.656218,-0.656218 -1.104366,-0.570856 -2.283423,-0.570856 -0.378792,0 -1.04568,1.509833 -1.147047,1.904631 -0.250749,1.008334 1.221738,2.475486 2.38479,2.475486 z M 50.83626,66.890285 c -0.266755,1.083026 -1.141711,-1.33911 -1.141711,-2.096694 0,-0.997664 2.038008,0.656217 2.096694,0.762919 0.480159,0.965653 0.154718,1.115036 -0.954983,1.333775 z m -5.047005,3.238406 c 0.52284,1.051015 1.280424,-0.656217 1.429807,-0.949648 0.122707,-0.256084 -1.728572,-1.243078 -1.909966,-1.333775 -1.477822,-0.741579 -1.029674,0.986994 -0.757584,1.525839 0.138713,0.28276 0.789595,0.757584 1.237743,0.757584 z m 0.853616,-3.238406 c 0.325441,0.650883 -0.07469,-1.771253 0.576191,-2.096694 1.184392,-0.592196 1.776588,-0.506834 2.091359,0.762919 0.112037,0.448149 -2.294093,1.184393 -2.66755,1.333775 z"
     inkscape:connector-curvature="0"
     style="fill:url(#pattern36384);fill-rule:evenodd;stroke-width:0.53351003" />
  <metadata
     id="metadata138">
    <rdf:RDF>
      <cc:Work>
        <dc:format>image/svg+xml</dc:format>
        <dc:type
           rdf:resource="http://purl.org/dc/dcmitype/StillImage" />
        <cc:license
           rdf:resource="http://creativecommons.org/licenses/publicdomain/" />
        <dc:publisher>
          <cc:Agent
             rdf:about="http://openclipart.org/">
            <dc:title>Openclipart</dc:title>
          </cc:Agent>
        </dc:publisher>
        <dc:title>Black and White Earth</dc:title>
        <dc:date>2007-04-16T00:31:45</dc:date>
        <dc:description>3d globe projection of Earth, with the Americas prominant, and other continents visible through the globe.</dc:description>
        <dc:source>http://openclipart.org/detail/3954/black-and-white-earth-by-mgsloan</dc:source>
        <dc:creator>
          <cc:Agent>
            <dc:title>mgsloan</dc:title>
          </cc:Agent>
        </dc:creator>
        <dc:subject>
          <rdf:Bag>
            <rdf:li>america</rdf:li>
            <rdf:li>black &amp; white</rdf:li>
            <rdf:li>clip art</rdf:li>
            <rdf:li>clipart</rdf:li>
            <rdf:li>continent</rdf:li>
            <rdf:li>earth</rdf:li>
            <rdf:li>globe</rdf:li>
            <rdf:li>line art</rdf:li>
            <rdf:li>map</rdf:li>
            <rdf:li>world</rdf:li>
          </rdf:Bag>
        </dc:subject>
      </cc:Work>
      <cc:License
         rdf:about="http://creativecommons.org/licenses/publicdomain/">
        <cc:permits
           rdf:resource="http://creativecommons.org/ns#Reproduction" />
        <cc:permits
           rdf:resource="http://creativecommons.org/ns#Distribution" />
        <cc:permits
           rdf:resource="http://creativecommons.org/ns#DerivativeWorks" />
      </cc:License>
    </rdf:RDF>
  </metadata>
</svg>
