<svg xmlns="http://www.w3.org/2000/svg" id="logo" viewBox="0 0 153.1 149.7">
  <path id="outline" d="m136.8 74.8a60.2 60.2 0 1 1-120.4 0 60.2 60.2 0 1 1 120.4 0z"/>
  <path id="euas1" d="m68.6 63.6c0.2-1-1.2-2.8-1.6-4.3-0.3-1.4-0.6-2.2-1.3-3-1.4-1.5-1.9-0.7-1.9 1.1 0 1.2-0.3 2.5-0.5 3.5-0.3 1.1-1.4 1.9-1.9 2.4-1 1-1.8 1-3 1.6-1.1 0.5-2.4 1.5-2.4-0.5 0-1.6 0.8-1.9 1.6-2.7 0.8-0.8 1-2 1.6-3.2 0.6-1.2 1.1-1.8 1.1-3.5 0-2.4-1.2-0.9-2.2 0-0.8 0.8-1.2 1.9-1.6 2.7-0.5 1.1-2.5 0.4-3.2 0.3-1.2-0.3-0.5-2.4-1.1-3.5-0.7-1.4-0.6-2.1 0.3-3 0.9-0.9 1.8-1 2.7-1.9 1.4-1.4-0.2-1.6-1.6-1.6-1.5 0-2.6-0.3-4-0.3-1.2 0-1.1-2-1.1-3.2 0-0.6-2.4-1.6-3.2-2.2-1.2-0.7-0.8-1.9-0.5-3 0.3-1.1 2.1-1.6 3.2-1.6 1.9 0 1-1-0.5-1.3-0.6-0.2 0.1-1.9-2.2-1.9-0.4 0-2.1 1.3-2.2 1.3-1.1 0.3 0-3.2 0-3.2 0.8-1.5 1.6-1.6 0.3-3-0.8-0.8-1.6-1.8-2.2-3-0.5-1.1 2.1-2 2.4-2.2 1.1-0.5 1.8-1.1 2.7-1.6 1.4-0.7 1.5-1 3-1.3 1.1-0.3 1.9-0.8 3.2-0.8 1.7 0 2.4 0.2 3.5 1.1 0.9 0.7 1.5 1.4 2.4 1.9 0.9 0.5 1.5 1.7 2.2 2.4 1.2 1.2 1.9 2.7 3 3.8 0.9 0.9 1.1 1.9 1.9 2.7 0.8 0.9 1.3 1.9 1.6 3.2 0.3 1.4 1.3 2.4 2.2 3.2 1.2 1.2 1.8 1.8 2.4 3 0.5 1.1 1.5 0.9 2.2 2.2 0.6 1.1 1.1 1.5 1.1 3.2v3.8c0 1.3 0.5 2.1 0.5 3.5 0 1.5 0.6 2.4-0.5 3.5-0.5 0.5-1.4 2.2-1.9 3.2-0.5 0.9-1.4 1.6-2.2 2.2-0.6 0.4-1.4 0-2.2 0z"/>
  <path id="euas2" d="m128.7 78.3c1.3-2.2 2.6-5.1 2.8-7.9-0.5-2.5 1.5-5 3.6-2.6 2.3 1.1 0.1-4.3 0.1-5.7-0.8-2.9-1.1-5.8-2.5-8.4-0.7-2.5-1.8-5.1-3.5-7.1-0.7-2.6-1.7-5-3.9-6.7-3.2-2.4-3.6 4.8-6.1 1.8-1.7-3-4.4 1.1-7-0.9-2.8 0.3-3.9-5.8-0.8-5.3 4.5-0.2 7.4-2.3 3-7.1-1.1-1.6-5.3-4-5.8-4.4-0.8-0.7-0.8 1.1-2 1.1-0.5 0-0.6-1.1-1.4-1.5-1-0.6-1.9-2.7-2.4-2.9-2.7-1.4-7.2-3-10-4-3-0.8-6.5-1.4-10.2-1.9-1.6 1.5-3.4 6-0.8 8.7 15 1.6 7.5 23.3 17.7 27.6 2.3 1.4 4.4 3.4 7 4.4 2.2 1.4 3.6-7.6 4.3-9.6 2.2-2.4 1.3 3 1.1 4.2-0.5 2.5-1.1 5.3-3.4 6.8-1.4 1.4-5.2 0-5.6 1.6 1.3 2.2 2.7 4.2 3.9 6.4 1.3 3 5.2 3.9 6.3 7.1 2 2.7 12.4 7.6 15.4 6.4zm-7.8-43.9c-0.2 0.3-0.2 1.4-0.4 2-0.2 0.8 0.2 1.3 0.4 1.7 0.2 0.5 0.7 0.7 1.3 0.7 0.6 0 1-0.3 1.7-0.3-0.3-1.4-0.5-1.9-1.3-2.4l-1.2-1.2zm-2 1.5c-0.4 0.1-0.5 0.1-1.1 0-0.7-0.2-0.8-0.5-0.7-0.9 0.1-0.4 0.8-0.3 1.1-0.3 1.2 0 0.7 0.8 1.1 0.7 0.3-0.1-0.5 0.2-0.5 0.5z"/>
  <path id="ameri" d="m48 22.4c4.6-4 10.8-5 16.6-5.8 3.2-1.7 6.3 0.7 7.9 1.6 1.4-2.9 6.1 1.2 5.6-3 2.6-0.8 4 4 6.8 1.4 3.2 3-5.1 4-3.5 6.2 4.7-0.5 7.1 3.6 11 5.1-1.8-3-0.2-3.1-1.1-4.3-1.7-2.6-4-4.1 1-2.9 5.7 3.2 3.2-1.3 10.2 4.3 2.1-0.3 2.9 1.6 2.8 2.8 0 0.9-0.6 1.7-2.8 0.4-3 2.1-3 3.7-0.6 1.1 2.4 0 2.5 4.8 5.3 2.1-0.1 0.8-0.5 1.8-1 2.1-0.7 0.3-1.7-0.3-2.4 0-0.9 0.3-1 1-1.3 2.7-2 0.5-2.8 1.6-2.7 3 0.1 2.3 1.6 5.2-2 5.7-4.2 2.1 4.1 9.6 0.1 9.4-2.5-2.5-3.2-6.4-7.5-5.5-1.9-0.3-2.3 2.9-5.1 0.9-5.6-0.3-6.9 6.7-4.6 10.5 1.5 4.9 7.7 1.9 8.5-1.4 7.4-1.2-3 9.2 5 7.7 5.2-0.4 0.6 9 7.2 7.8 3.9 0.5 8.1-7.8 11.8-2.5 2.1-0.5 4.4-1.2 6.3-0.4 2.1 0.9 3.7 3.4 5.6 4.6 6.2-0.5 1.4 7.8 7.4 7.3 6.3-0.7 1.8 6.2 1.4 9.5-1.6 4.8-3.6 9.5-6.3 13.8-5 2.3-7.1 8.1-11 11.6-4.9 1.4-8.1 5.8-12.4 8.2-2.4 2.2-7.3 6-9.7 5.2 2.2-4.1 5-7.4 7.7-11.2 2.1-4.7 9.3-11 6.1-15.8-5.1-2.4-5.3-9.3-8.6-13.4 2.2-2.1-0.3-6 3.6-8 1.9-1.6 2-9.5-1.9-7.1-5.6-1.3-8.1-7.6-14-8-3.7-3.3-9.1-1.7-13.6-4.7-4.3-1.9-3.9-8-7.9-10.6-1-1.3-3.4-6.9-4.2-3.9 0.3 2.2 6.1 10.2 1.5 5.5-3.1-4.3-4.7-9.4-7.4-13.9-2.4-4 2.3-7.4 1.5-11.1 2.7-0.5-2.4-4.5-1.8-7.2-1.9-2.7-2.3 0.3-4.7-0.5-0.2 2-1.8 1.2-2.9 0.5z"/>
  <path id="austr" d="m28.3 81.4c0.5 0.3 1.2 1.1 1.3 1.9 0.1 0.6 0.7 1 1.1 1.2 0.4 0.2 0.7 1 0.9 1.2 0.5 0.5 1.5-0.8 1.6-0.9 0.5-0.5 0.8-1.1 0.1-1.7-0.4-0.4-0.9-0.5-1.2-0.8-0.5-0.5 1.2-0.8 1.3-0.8 0.6-0.1 0.9-0.4 1.3-0.7 0.6-0.3 1.2-0.3 1.8-0.1 0.6 0.1 0.4 1.1 0.7 1.6 0.1 0.2 1.1 0.6 1.3 0.8 0.8 0.8 0.5-1 0.4-1.2-0.1-0.4-0.5 0 0.7-0.3 0.6-0.1 1 0.5 1.3 0.7 0.4 0.2 0.5 1.3 0.5 1.6 0.1 0.6 0.9 0.8 1.3 0.9 0.4 0.1 0.9 0.5 1.5 0.7 0.6 0.1 1.1 0.7 1.8 0.8 0.7 0.2 1.2 0.2 1.9 0.5 0.6 0.3 0.8 0.4 1.5 0.5 0.7 0.2 0.9 0.8 1.2 1.3 0.3 0.6-0.4 1.3-0.5 1.6-0.2 0.4 0.3 1.6 0.4 2 0.2 0.8 0 1.2-0.1 1.8-0.1 0.6 0 1.5 0.1 2 0.1 0.5 0.7 0.7 1.1 1.1 0.6 0.6 0.1 1.2-0.4 1.5-0.6 0.3-1 0.4-1.7 0.4-0.6 0-1.2-0.4-1.9-0.5-0.5-0.1-1.2-0.1-1.9-0.1-0.7 0-1.2 0.2-1.9-0.1-0.5-0.2-1.1-0.4-1.7-0.5-0.7-0.2-1 0.1-1.3 0.5-0.4 0.4-0.4 1.5-0.5 1.7-0.3 0.6-0.8 0.5-0.9 1.1-0.2 0.7 0.1 1.3 0.3 1.9 0.1 0.6-0.1 1.1-0.4 1.8-0.4 0.8-0.4 0.9-1.1 1.3-0.3 0.3-1.4 0.1-1.9 0.1-0.4 0-1.1-0.6-1.5-0.8-0.5-0.2-0.7-1.2-1.2-1.5-0.5-0.2-1-0.7-1.5-0.9-0.6-0.3-1-0.7-1.3-1.2-0.4-0.6-0.7-0.8-0.8-1.5-0.1-0.6-0.5-1.3-0.8-1.9-0.4-0.7-0.5-1.1-0.7-1.7-0.1-0.6-0.3-1-0.3-1.8 0-0.7-0.3-1.1-0.3-1.9 0-0.7 0.2-1.2 0.4-1.9 0.1-0.5 0.5-0.7 0.7-1.3 0.1-0.6 0.1-1.2 0.1-1.9 0 0-0.9-1.3-1.1-1.6-0.3-0.5-0.1-1.3-0.1-1.9 0-0.5 0.5-1.2 0.7-1.5 0.2-0.4-0.2-1.2-0.3-1.5z"/>
  <path id="antar" d="m56.7 131.3c-0.7-2.1-0.5-4.5 0.8-6.4 0.4-1.2 1.5-2 2.5-2.8 1.4-0.8 3.2-0.6 4.7-1.1 1.6-0.4 3.3-1 4.9-0.3 2.1 1.2 4.6 0 6.8 0.9 1.4 0.4 2.4 1.9 4 1.2 1.7-0.4 3.2-1.3 5-1.1 1.5 0.2 3.1-0.4 4.4 0.4 1 0.9 2.2 1.5 3.2 2.4 0.9 1.1 2.4 2 2.5 3.6-0.6 1.3-0.8 3.4-2 4.3-10.6 3.3-22.8 3.8-35.6-0.5-0.4-0.2-0.8-0.5-1.1-0.8z"/>
  <path id="japan" d="m42.8 46c-0.3 0.7-0.3 1.3-1.2 1.5-0.9 0.2-0.9 0.3-0.5 0.9 0.4 0.7-0.1 0.5-0.7 0.8-0.3 0.2-0.7 0.9-0.9 1.1-0.4 0.4-1.7-0.2-1.7-0.3-0.2-0.1-0.4-1.5-0.4-1.6-0.2-0.7-0.3-1.1-0.5-1.5-0.3-0.6-0.7-0.3-0.3-1.2 0.2-0.5 0.5-1.1 0.7-1.5 0.1-0.2-1-1.3-1.1-1.5-0.4-0.5-0.5-1.1-0.7-1.6-0.1-0.6 1-0.7 1.5-0.8 0.5-0.1 0.8-0.8 1.1-1.1 0.5-0.5 1.5 0.3 2 0.5 0.5 0.3 0 1.2 0.3 1.8 0.3 0.6 0.4 1.1 0.4 1.7 0 0.5-0.7 0.9-0.8 1.3-0.3 1 0.6 0.9 1.1 0.8 0.6-0.2 0.6-0.5 1.5-0.5 0.3 0 0.4 1 0.4 1.1z"/>
  <path id="indon" d="m50.3 71.1c-0.2 0-0.7-1.7 0.8-1.3 0.5 0.1-0.4 0.9-0.8 1.3zm-8.8 0.6c0.4-0.8 0.3-1.7 1.7-1.7 0.6 0 1.8 1 2.1 1.3 0.8 0.8 1.6 0.7 0 1.1-1 0.2-1 0.8-2.3 0.8-0.7 0-1-1-1.5-1.5zm5.1 2.1c-0.1 0 0.1-2.3 0.3-2.7 0.5-0.9 0.9-1.4 1.3-1.9 0.7-0.7 0.3-1.8 0-2.3-0.3-0.6 1.5 0.8 1.5 1.5 0 0.5-0.6 1.4-0.6 2.5 0 0.9-0.7 1.6-1.1 2.1-0.8 0.8-0.2 1.5-1.5 1.5-0.4 0-1.3-0.8 0.1-0.8zm6.5-2.7c1.2 0.3 0.3 0 1-1.5 0.5-1 0.8-1.5 0-2.3-0.7-0.7-1.1-0.6-2.3-0.6-0.4 0-1 1.5-1.1 1.9-0.3 1 1.2 2.5 2.4 2.5zM50.8 66.9c-0.3 1.1-1.1-1.3-1.1-2.1 0-1 2 0.7 2.1 0.8 0.5 1 0.2 1.1-1 1.3zm-5 3.2c0.5 1.1 1.3-0.7 1.4-0.9 0.1-0.3-1.7-1.2-1.9-1.3-1.5-0.7-1 1-0.8 1.5 0.1 0.3 0.8 0.8 1.2 0.8zm0.9-3.2c0.3 0.7-0.1-1.8 0.6-2.1 1.2-0.6 1.8-0.5 2.1 0.8 0.1 0.4-2.3 1.2-2.7 1.3z"/>
</svg>
